<mxfile host="app.diagrams.net" modified="2024-01-04T02:00:30.866Z" agent="Mozilla/5.0 (Macintosh; Intel Mac OS X 10_15_7) AppleWebKit/605.1.15 (KHTML, like Gecko) Version/16.3 Safari/605.1.15" version="22.1.16" etag="HoP9Zyzy-1a9Eecxe8hH" type="github">
  <diagram name="第 1 页" id="X-RWgyYwtjNnnkYzZH9Q">
    <mxGraphModel>
      <root>
        <mxCell id="0" />
        <mxCell id="1" parent="0" />
      </root>
    </mxGraphModel>
  </diagram>
</mxfile>
